<?xml version="1.0" encoding="utf-8"?>
<!-- Generator: Adobe Illustrator 16.0.0, SVG Export Plug-In . SVG Version: 6.00 Build 0)  -->
<!DOCTYPE svg PUBLIC "-//W3C//DTD SVG 1.1//EN" "http://www.w3.org/Graphics/SVG/1.1/DTD/svg11.dtd">
<svg version="1.1" id="Layer_1" xmlns="http://www.w3.org/2000/svg" xmlns:xlink="http://www.w3.org/1999/xlink" x="0px" y="0px"
	 width="300px" height="300px" viewBox="0 0 300 300" style="enable-background:new 0 0 300 300;" xml:space="preserve">
<style type="text/css">
<![CDATA[
	.st0{fill:#F04E23;}
	.st1{fill:#FFFFFF;}
]]>
</style>
<rect x="3.252" y="146.358" width="293.496" height="60.67"/>
<path class="st1" d="M60.523,200.974v-20.506H42.422v20.506H28.611v-49.785h13.811v18.074h18.102v-18.074h13.926v49.785H60.523z"/>
<path class="st1" d="M134.792,180.233c0,5.805-1.935,10.703-5.802,14.699c-3.792,3.844-8.666,5.766-14.622,5.766
	c-5.88,0-10.754-1.922-14.622-5.766c-3.791-3.918-5.686-8.82-5.686-14.699c0-5.955,1.895-10.816,5.686-14.588
	c3.79-3.918,8.664-5.879,14.622-5.879c5.956,0,10.83,1.961,14.622,5.879C132.857,169.567,134.792,174.429,134.792,180.233z
	 M122.143,180.233c0-2.939-0.58-5.354-1.74-7.238c-1.393-2.41-3.404-3.617-6.034-3.617c-2.631,0-4.642,1.207-6.034,3.617
	c-1.084,1.963-1.625,4.373-1.625,7.238c0,7.162,2.553,10.742,7.659,10.742c2.63,0,4.642-1.168,6.034-3.506
	C121.563,185.511,122.143,183.099,122.143,180.233z"/>
<path class="st1" d="M201.748,199.569v-22.729c0-4.447-1.74-6.672-5.223-6.672c-2.553,0-4.217,0.943-4.99,2.826
	c-0.619,1.584-0.928,4.109-0.928,7.578v18.996h-12.648v-22.051c0-4.898-1.588-7.35-4.758-7.35c-2.322,0-3.986,0.791-4.99,2.375
	c-1.006,1.582-1.51,4.297-1.51,8.141v18.885H154.17v-38.785h12.301v5.314h0.115c2.475-4.221,6.15-6.332,11.025-6.332
	c5.568,0,9.32,2.074,11.256,6.219c3.094-4.145,7.078-6.219,11.951-6.219c9.129,0,13.693,5.539,13.693,16.621v23.182H201.748z"/>
<path class="st1" d="M246.424,183.284c0.232,5.881,3.133,8.82,8.703,8.82c3.48,0,5.879-1.43,7.193-4.295h11.838
	c-1.16,4.295-3.598,7.574-7.311,9.838c-3.328,2.033-7.273,3.051-11.838,3.051c-6.498,0-11.662-1.826-15.49-5.482
	c-3.83-3.656-5.744-8.688-5.744-15.096c0-5.881,2.01-10.742,6.033-14.588c4.1-3.844,9.051-5.766,14.854-5.766
	c6.73,0,11.875,2.262,15.434,6.785c3.404,4.373,4.951,9.949,4.643,16.732H246.424z M259.885,170.565
	c-1.393-1.545-3.133-2.318-5.223-2.318c-4.564,0-7.311,2.639-8.238,7.916h15.781C262.049,173.976,261.277,172.11,259.885,170.565z"
	/>
<path class="st0" d="M3.289,130.522V38.611h78.746v21.245H29.08v17.968h48.41v20.613H29.08v19.236h54.329v22.937H12.515
	C2.914,140.61,3.289,130.522,3.289,130.522"/>
<path class="st0" d="M93.758,122.185c3.998,2.364,12.28,5.006,18.704,5.006c6.568,0,9.281-2.085,9.281-5.562
	c0-3.617-2.143-5.286-10.138-7.93c-14.564-4.729-20.133-12.379-19.99-20.448c0-12.795,11.138-22.394,28.414-22.394
	c8.138,0,15.278,1.947,19.563,4.033l-3.712,14.605c-3.142-1.668-9.282-3.894-15.136-3.894c-5.283,0-8.282,2.085-8.282,5.424
	s2.713,5.008,11.281,7.929c13.278,4.452,18.704,11.129,18.847,21.004c0,12.796-10.139,22.116-30.128,22.116
	c-9.138,0-17.278-2.086-22.559-4.869L93.758,122.185z"/>
<path class="st0" d="M170.094,111.614c0,1.39,0.141,2.644,0.418,3.755c1.393,5.564,6.262,10.016,12.381,10.016
	c9.041,0,14.604-6.956,14.604-19.196c0-10.571-4.729-18.917-14.604-18.917c-5.705,0-10.988,4.312-12.381,10.431
	c-0.277,1.253-0.418,2.506-0.418,3.897V111.614z M148.952,48.639h21.142v11.989v19.967h0.279c4.033-5.844,11.127-9.598,20.586-9.598
	c16.275,0,28.098,13.491,27.959,34.356c0,24.481-15.441,36.722-31.02,36.722c-7.928,0-15.717-2.92-20.447-10.988h-0.277
	l-0.836,9.459h-17.941c0.276-4.453,0.556-12.658,0.556-20.309V60.628V48.54"/>
<path class="st0" d="M246.943,106.467c0,11.685,4.869,20.446,13.908,20.446c8.348,0,13.494-8.207,13.494-20.585
	c0-10.017-3.895-20.31-13.494-20.31C250.838,86.019,246.943,96.452,246.943,106.467 M296.186,105.771
	c0,24.898-17.666,36.305-35.889,36.305c-19.893,0-35.193-13.076-35.193-35.053c0-22.116,14.469-36.165,36.445-36.165
	C282.275,70.857,296.186,85.185,296.186,105.771"/>
<polygon class="st0" points="159.889,38.757 226.574,77.81 226.574,73.363 237.863,73.363 203.035,54.154 203.035,39.057 
	203.035,38.611 192.516,38.611 192.516,39.131 192.516,48.355 160.041,30.443 159.496,30.15 158.973,30.443 81.147,73.363 
	92.44,73.363 92.44,77.81 159.125,38.757 159.496,38.531 "/>
<path class="st0" d="M5.266,31.93V19.539h3.257V31.93H5.266z"/>
<path class="st0" d="M21.486,25.734c0,4.296-1.943,6.444-5.83,6.444c-3.888,0-5.831-2.148-5.831-6.444
	c0-0.227,0.005-0.434,0.017-0.62c0.01-0.186,0.027-0.361,0.049-0.527h5.635v2.292h-2.248c0,1.962,0.793,2.943,2.379,2.943
	c0.824,0,1.411-0.248,1.759-0.744c0.478-0.64,0.716-1.755,0.716-3.346c0-2.726-0.879-4.089-2.638-4.089
	c-0.63,0-1.146,0.207-1.548,0.62c-0.401,0.414-0.602,0.888-0.602,1.425h-3.323c0.065-1.301,0.592-2.359,1.58-3.176
	c0.987-0.815,2.34-1.224,4.056-1.224C19.543,19.291,21.486,21.439,21.486,25.734z"/>
<path class="st0" d="M29.695,31.93v-3.996c0-0.62-0.207-1.125-0.619-1.518c-0.413-0.392-0.934-0.589-1.564-0.589
	c-0.607,0-1.112,0.186-1.514,0.558c-0.402,0.372-0.614,0.857-0.635,1.456c-0.022,0.517,0.129,0.935,0.455,1.255
	s0.738,0.48,1.238,0.48c0.086,0,0.162-0.005,0.228-0.016c0.065-0.01,0.142-0.025,0.228-0.046v2.417l-1.01,0.062
	c-1.433,0.082-2.54-0.279-3.322-1.084c-0.695-0.723-1.042-1.755-1.042-3.098c0-1.26,0.467-2.303,1.401-3.129
	c0.867-0.764,1.986-1.146,3.354-1.146c1.259,0,2.192,0.279,2.802,0.836v-1.177c0-1.053-0.674-1.58-2.02-1.58
	c-0.543,0-1,0.124-1.369,0.372c-0.412,0.31-0.618,0.723-0.618,1.239h-3.323c0-1.198,0.451-2.127,1.353-2.788
	c0.901-0.661,2.198-0.991,3.893-0.991c0.782,0,1.476,0.093,2.085,0.279v-1.116h3.257V31.93H29.695z"/>
<path class="st0" d="M40.281,15.48c-0.325,0-0.722-0.021-1.188-0.062c-0.468-0.042-0.766-0.062-0.896-0.062
	c-0.413,0-0.619,0.124-0.619,0.372c0,0.124,0.098,0.346,0.293,0.666c0.195,0.32,0.293,0.646,0.293,0.976v14.56h-3.258V17.587
	c0-0.248-0.043-0.506-0.129-0.774c-0.088-0.269-0.18-0.521-0.277-0.759c-0.098-0.237-0.19-0.459-0.277-0.666
	c-0.087-0.206-0.13-0.372-0.13-0.496c-0.044-0.599,0.185-1.084,0.685-1.456c0.498-0.372,1.129-0.558,1.889-0.558
	c0.281,0,0.592,0.026,0.928,0.078c0.337,0.052,0.668,0.114,0.994,0.186c0.326,0.073,0.641,0.14,0.944,0.202s0.564,0.093,0.782,0.093
	c0.564,0.021,1.118,0,1.661-0.062v1.952C41.498,15.429,40.934,15.48,40.281,15.48z"/>
<path class="st0" d="M49.141,30.908c-0.955,0.847-2.313,1.271-4.071,1.271c-1.737,0-3.083-0.423-4.039-1.271
	c-0.825-0.743-1.237-1.724-1.237-2.943v-8.426h3.257v8.457c0,1.281,0.673,1.921,2.02,1.921c1.368,0,2.052-0.64,2.052-1.921v-8.457
	h3.258v8.426C50.379,29.184,49.967,30.165,49.141,30.908z"/>
<path class="st0" d="M45.167,17.99v-0.806c0-0.496-0.217-0.744-0.651-0.744h-0.326v-1.858h2.248c1.324,0,1.986,0.464,1.986,1.394
	v0.155h3.453v1.859H45.167z"/>
<path class="st0" d="M57.708,15.48c-0.325,0-0.722-0.021-1.188-0.062c-0.468-0.042-0.766-0.062-0.896-0.062
	c-0.412,0-0.619,0.124-0.619,0.372c0,0.124,0.098,0.346,0.293,0.666c0.195,0.32,0.294,0.646,0.294,0.976v14.56h-3.258V17.587
	c0-0.248-0.044-0.506-0.13-0.774c-0.088-0.269-0.18-0.521-0.277-0.759c-0.098-0.237-0.189-0.459-0.276-0.666
	c-0.087-0.206-0.13-0.372-0.13-0.496c-0.045-0.599,0.184-1.084,0.684-1.456c0.499-0.372,1.129-0.558,1.889-0.558
	c0.282,0,0.592,0.026,0.929,0.078c0.337,0.052,0.668,0.114,0.993,0.186c0.326,0.073,0.641,0.14,0.945,0.202
	c0.304,0.062,0.564,0.093,0.781,0.093c0.564,0.021,1.119,0,1.662-0.062v1.952C58.924,15.429,58.359,15.48,57.708,15.48z"/>
<path class="st0" d="M68.359,19.663c-0.478,0.413-1.053,0.681-1.727,0.805c1.281,1.033,1.922,2.788,1.922,5.267
	c0,4.296-1.943,6.444-5.83,6.444c-3.888,0-5.831-2.148-5.831-6.444c0-0.227,0.005-0.434,0.017-0.62
	c0.01-0.186,0.027-0.361,0.049-0.527h5.635v2.292h-2.248c0,1.962,0.793,2.943,2.379,2.943c0.824,0,1.411-0.248,1.759-0.744
	c0.478-0.64,0.716-1.755,0.716-3.346c0-2.726-0.879-4.089-2.638-4.089c-0.63,0-1.146,0.207-1.548,0.62
	c-0.401,0.414-0.602,0.888-0.602,1.425h-3.323c0.065-1.301,0.592-2.359,1.58-3.176c0.987-0.815,2.34-1.224,4.056-1.224
	c0.803,0,1.443,0.073,1.922,0.217c0.369-0.289,0.564-0.588,0.586-0.898h3.713C68.945,18.96,68.75,19.312,68.359,19.663z"/>
<path class="st0" d="M79.189,31.171c-0.618,0.609-1.492,0.914-2.621,0.914c-1.521,0-2.781-0.568-3.779-1.704v1.549h-3.258V19.539
	h3.258v8.023c0,0.579,0.212,1.105,0.635,1.58c0.424,0.475,1.005,0.712,1.743,0.712c1.129,0,1.694-0.63,1.694-1.89v-8.426h3.257
	v9.139C80.118,29.73,79.809,30.562,79.189,31.171z"/>
</svg>
